<?xml version="1.0" encoding="UTF-8"?>
<svg id="_레이어_1" data-name="레이어_1" xmlns="http://www.w3.org/2000/svg" version="1.1" viewBox="0 0 375.2 49.3">
  <!-- Generator: Adobe Illustrator 30.3.0, SVG Export Plug-In . SVG Version: 2.1.3 Build 182)  -->
  <defs>
    <style>
      .st0 {
        fill: #040000;
      }
    </style>
  </defs>
  <polygon class="st0" points="0 .5 9.6 .5 18.5 19.3 27.4 .5 37 .5 23 28.2 23 49.3 14 49.3 14 28.2 0 .5"/>
  <path class="st0" d="M61.3,8.3c-3.9,0-7.2,1.4-9.8,4.1-2.6,2.8-3.9,6.8-3.9,12.3s1.3,9.5,3.9,12.3c2.6,2.8,5.8,4.1,9.8,4.1s7.2-1.4,9.7-4.1c2.6-2.8,3.9-6.8,3.9-12.3s-1.3-9.5-3.9-12.3c-2.5-2.7-5.8-4.1-9.7-4.1M61.3,0c8.3,0,15.3,3.2,19.5,10.9,2.1,3.8,3.2,8.4,3.2,13.8,0,10.7-4.8,18.6-11.4,22.1-3.4,1.7-7.1,2.5-11.3,2.5-8.3,0-15.2-3.2-19.6-10.9-2.1-3.8-3.2-8.4-3.2-13.8,0-10.7,4.8-18.7,11.4-22,3.4-1.7,7.1-2.6,11.3-2.6"/>
  <path class="st0" d="M125.7.5v29.9c0,12.5-6.9,18.9-18,18.9s-18-6.4-18-18.9V.5h9v30c0,7,3,10.5,9,10.5s9-3.5,9-10.5V.5h8.9Z"/>
  <path class="st0" d="M166.9,12.4l-5.1,16.7h10.2l-5.1-16.7ZM178,48.8l-3.5-11.4h-15.3l-3.5,11.4h-9.6L162.4.5h8.9l16.3,48.2h-9.6Z"/>
  <polygon class="st0" points="221.6 .5 230.5 .5 230.5 48.8 221.1 48.8 203.4 16.9 203.4 48.8 194.4 48.8 194.4 .5 203.9 .5 221.6 32.4 221.6 .5"/>
  <path class="st0" d="M249.9,40.5h3.3c4.2,0,7.6-.9,10.9-3.1,3.3-2.2,5.3-6.6,5.3-12.7s-2-10.5-5.3-12.7c-3.2-2.2-6.7-3.1-10.9-3.1h-3.3v31.7ZM240.9,48.8V.5h15.1c11.4,0,22.4,7.3,22.4,24.1s-11.1,24.1-22.4,24.1h-15.1Z"/>
  <path class="st0" d="M336.7.5v29.9c0,12.5-7,18.9-18,18.9s-18-6.4-18-18.9V.5h9v30c0,7,3,10.5,9,10.5s9-3.5,9-10.5V.5h9Z"/>
  <path class="st0" d="M365.9,13.4c-1.7-3.4-4-5.1-6.7-5.1s-4.6,1.9-4.6,4.4,3.3,5.3,7.2,7.2c5.8,2.6,13.4,6.1,13.4,14.5,0,9.4-6,15-15.4,15s-7.9-1.3-10.9-3.9c-3-2.6-5-5.9-5.7-9.6l7.2-4.6c1.9,6.5,5,9.8,9.6,9.8s6.3-2.1,6.3-6.3-3.1-5-7.2-6.7c-5.7-2.4-13.2-6.1-13-14.9,0-3.7,1.3-6.8,3.7-9.3C352.4,1.2,355.5,0,359.3,0c6.5,0,11.1,2.9,13.9,8.7l-7.2,4.6Z"/>
</svg>